<svg xmlns="http://www.w3.org/2000/svg" width="32" height="32" viewBox="0 0 32 32">
  <g fill="none" fill-rule="evenodd">
    <circle cx="16" cy="16" r="16" fill="#EEEEEE"/>
    <path fill="#373B40" d="M11.485,21 L11.485,12.329 L9.873,12.329 L7.143,15.072 L8.196,16.177 L9.639,14.708 L9.639,21 L11.485,21 Z M16.282,21.156 C14.462,21.156 12.798,20.363 12.798,18.751 C12.798,17.698 13.617,16.892 14.657,16.528 C13.695,16.19 12.941,15.566 12.941,14.487 C12.941,12.849 14.67,12.199 16.282,12.199 C17.881,12.199 19.623,12.849 19.623,14.487 C19.623,15.566 18.856,16.19 17.907,16.528 C18.934,16.892 19.766,17.698 19.766,18.751 C19.766,20.363 18.102,21.156 16.282,21.156 Z M16.282,15.8 C16.815,15.709 17.738,15.436 17.738,14.799 C17.738,14.188 17.127,13.837 16.282,13.837 C15.424,13.837 14.813,14.188 14.813,14.799 C14.813,15.436 15.749,15.709 16.282,15.8 Z M16.282,19.518 C17.166,19.518 17.894,19.115 17.894,18.491 C17.894,17.776 16.815,17.438 16.282,17.36 C15.736,17.438 14.67,17.776 14.67,18.491 C14.67,19.115 15.372,19.518 16.282,19.518 Z M26.396,17.126 L26.396,16.099 L24.069,16.099 L24.069,13.551 L22.938,13.551 L22.938,16.099 L20.598,16.099 L20.598,17.126 L22.938,17.126 L22.938,19.765 L24.069,19.765 L24.069,17.126 L26.396,17.126 Z"/>
  </g>
</svg>
