<?xml version="1.0" encoding="UTF-8"?>
<svg width="268px" height="35px" viewBox="0 0 268 35" version="1.1" xmlns="http://www.w3.org/2000/svg" xmlns:xlink="http://www.w3.org/1999/xlink">
    <!-- Generator: Sketch 49.1 (51147) - http://www.bohemiancoding.com/sketch -->
    <title>gambleaware</title>
    <desc>Created with Sketch.</desc>
    <defs></defs>
    <g id="Page-1" stroke="none" stroke-width="1" fill="none" fill-rule="evenodd">
        <g id="gambleaware" fill="#FFFFFF" fill-rule="nonzero">
            <path d="M0.131501472,11.4210526 L7.86378803,11.4210526 C11.3091266,11.4210526 12.5452404,11.5263158 13.5709519,11.9210526 C15.4908734,12.8421053 16.6217861,14.6578947 16.6217861,16.8157895 C16.6217861,18.8421053 16.0168793,19.8684211 13.9654563,20.8947368 C16.0957802,21.6052632 17.5159961,23.6315789 17.331894,25.8684211 C17.331894,29.2368421 14.6755643,31.4736842 10.8357213,31.4736842 L0.157801766,31.4736842 L0.157801766,28.2105263 L1.68321884,28.2105263 L1.68321884,14.6842105 L0.157801766,14.6842105 L0.131501472,11.4210526 Z M5.83866536,14.6842105 L5.83866536,19.5789474 L9.81000981,19.5789474 C11.2302257,19.6842105 12.5452404,18.6578947 12.6504416,17.2368421 C12.6504416,17.1315789 12.6504416,17.0263158 12.6504416,17.0263158 C12.6504416,15.7105263 11.3354269,14.6842105 9.49440628,14.6842105 L5.83866536,14.6842105 Z M5.83866536,22.7368421 L5.83866536,28.2368421 L10.0993131,28.2368421 C11.7299313,28.3421053 13.1501472,27.2105263 13.2553484,25.5789474 C13.2553484,25.5789474 13.2553484,25.5789474 13.2553484,25.4736842 C13.2553484,23.7368421 11.8351325,22.6315789 9.70480864,22.6315789 L5.83866536,22.7368421 Z" id="Shape"></path>
            <path d="M34.1903827,26.5 C33.4802748,29.8684211 30.7450442,31.8947368 27.0630029,31.8947368 C22.8023553,31.8947368 19.6463199,28.5263158 19.6463199,23.8684211 C19.6463199,19.1842105 22.8023553,15.8421053 27.0630029,15.8421053 C29.4037291,15.8421053 31.6392542,16.9736842 32.9542689,19 C33.9799804,20.7368421 34.5848871,22.6578947 34.479686,24.7105263 L23.4861629,24.7105263 C23.8806673,28.6842105 26.4317959,28.8947368 27.1419038,28.8947368 C28.5621197,29 29.8771344,27.9736842 30.2979392,26.6578947 L34.1903827,26.5 Z M30.3242395,22.0263158 C30.3242395,20.2894737 28.9040236,18.9736842 27.2734053,18.9736842 L27.1682041,18.9736842 C25.4323847,18.9736842 24.0121688,20.2894737 23.7228656,21.9210526 L30.3242395,22.0263158 Z" id="Shape"></path>
            <path d="M46.9197252,21.5 L53.9419038,21.5 L53.9419038,31.4736842 L51.7063788,31.4736842 L51.7063788,28.3157895 C51.3118744,29.0263158 50.7858685,29.6315789 50.1809617,30.2368421 C48.865947,31.3684211 47.2353288,31.9736842 45.6047105,31.9736842 C40.9232581,31.9736842 37.2675172,27.3947368 37.2675172,21.5 C37.2675172,15.6052632 40.9232581,10.9210526 45.4995093,10.9210526 C48.0506379,10.8157895 50.2861629,12.2368421 51.4959764,14.3684211 L51.4959764,11.2105263 L53.6263003,11.2105263 L53.6263003,17.6315789 L51.3907753,17.6315789 C51.1803729,16.7105263 50.7858685,15.8947368 50.2598626,15.1842105 C49.2341511,13.8684211 47.6035329,13.0526316 45.9992149,12.9473684 C43.5532875,12.9473684 39.8975466,15.0789474 39.8975466,21.2894737 C39.8975466,26.1842105 42.5538763,29.7368421 45.9992149,29.7368421 C48.7344455,29.6315789 50.9699706,27.6052632 51.4959764,24.9473684 C51.6011776,24.4473684 51.6011776,23.8157895 51.6011776,23.3157895 L46.814524,23.3157895 L46.9197252,21.5 Z" id="Shape"></path>
            <path d="M71.0107949,31.5789474 L66.644946,31.5789474 L66.644946,28.8421053 C65.6192345,30.7631579 63.5941119,31.8947368 61.463788,31.8947368 C58.9126595,32.1052632 56.6771344,30.0526316 56.4930324,27.5263158 C56.4930324,27.4210526 56.4930324,27.3157895 56.4930324,27.2105263 C56.4930324,24.2631579 59.0441609,22.8421053 65.1458292,22.2368421 L66.5660451,22.1315789 L66.5660451,20.6052632 C66.5660451,18.8684211 65.2510304,17.7631579 63.1207066,17.7631579 C60.9903827,17.7631579 59.8594701,18.4736842 59.4649657,20.5 L57.0716389,20.5 C57.2820412,19.2894737 57.886948,18.1578947 58.8074583,17.3421053 C59.938371,16.4210526 61.463788,16.0263158 62.8840039,16.0263158 C66.0400393,16.0263158 68.6700687,17.4473684 68.6700687,21.3157895 L68.6700687,29.7368421 L70.8003925,29.7368421 L71.0107949,31.5789474 Z M66.644946,23.6315789 L65.2247301,23.8421053 C60.5432777,24.4473684 59.0178606,25.2631579 59.0178606,27.2105263 C59.1230618,28.9473684 60.5432777,30.1578947 62.173896,30.1578947 C64.409421,30.0526316 66.3556428,28.4210526 66.644946,26.1842105 L66.644946,23.6315789 Z" id="Shape"></path>
            <path d="M77.4280667,19.0526316 C78.1381747,18.0263158 79.4531894,15.8947368 82.3199215,15.8947368 C84.3450442,15.8947368 85.4759568,16.9210526 85.8704612,19.0526316 C86.2649657,18.3421053 86.6857704,17.7368421 87.2906771,17.1315789 C88.2111874,16.3157895 89.3157998,15.8157895 90.5519136,15.8157895 C92.8926398,15.8157895 94.2076546,17.3421053 94.2076546,20 L94.2076546,29.6578947 L96.3379784,29.6578947 L96.3379784,31.5 L92.0773307,31.5 L92.0773307,20.7894737 C92.0773307,18.6578947 91.3672228,17.6315789 89.8418057,17.6315789 C87.185476,17.6315789 85.7652601,20.7894737 85.7652601,21.8947368 L85.7652601,29.6315789 L88.0007851,29.6315789 L88.0007851,31.4736842 L83.529735,31.4736842 L83.529735,20.4736842 C83.529735,18.5526316 82.8196271,17.7368421 81.29421,17.7368421 C78.9534838,17.7368421 77.2176644,20.6842105 77.2176644,22.1052632 L77.2176644,29.7368421 L79.4531894,29.7368421 L79.4531894,31.5789474 L72.8518155,31.5789474 L72.8518155,29.7368421 L75.0873405,29.7368421 L75.0873405,17.9210526 L72.8518155,17.9210526 L72.8518155,16.0789474 L77.3228656,16.0789474 L77.4280667,19.0526316 Z" id="Shape"></path>
            <path d="M98.6787046,10.5263158 L102.939352,10.5263158 L102.939352,19.3684211 C103.544259,18.2368421 105.280079,16 107.910108,16 C111.355447,16 114.011776,19.5526316 114.011776,24.0263158 C114.011776,28.2105263 111.171344,31.7631579 107.910108,31.7631579 C105.174877,31.7631579 103.833562,29.9210526 102.939352,28.7105263 L102.939352,31.5789474 L98.5735034,31.5789474 L98.5735034,29.7368421 L100.703827,29.7368421 L100.703827,12.3421053 L98.6787046,12.3421053 L98.6787046,10.5263158 Z M102.939352,25.0789474 C102.939352,27.6315789 104.859274,29.6578947 107.305201,29.8684211 C109.961531,29.8684211 111.565849,27.5263158 111.565849,23.7631579 C111.565849,20 109.830029,17.7631579 107.305201,17.7631579 C105.069676,17.7631579 102.834151,20.2105263 102.834151,22.4473684 L102.939352,25.0789474 Z" id="Shape"></path>
            <polygon id="Shape" points="115.326791 10.5263158 119.69264 10.5263158 119.69264 29.7368421 121.717763 29.7368421 121.717763 31.5789474 115.22159 31.5789474 115.22159 29.7368421 117.457115 29.7368421 117.457115 12.2368421 115.326791 12.2368421"></polygon>
            <path d="M136.68263,27.3157895 C136.472228,28.2368421 136.077723,28.9473684 135.472816,29.6578947 C134.263003,31.0789474 132.527184,31.8947368 130.580962,31.8947368 C126.399215,31.8947368 123.453582,28.6315789 123.453582,23.9473684 C123.453582,19.4736842 126.399215,16 130.160157,16 C133.921099,16 136.971933,18.9473684 136.971933,24.3421053 L125.899509,24.3421053 C126.109912,26.5789474 126.609617,27.8947368 127.635329,28.9210526 C128.450638,29.6315789 129.476349,30.0526316 130.475761,30.0526316 C132.21158,30.0526316 133.316192,29.2368421 134.131501,27.3947368 L136.68263,27.3157895 Z M134.447105,22.6315789 C134.447105,21.2105263 133.947399,19.8947368 132.921688,18.7631579 C132.21158,18.1578947 131.29107,17.7368421 130.370559,17.8421053 C128.450638,17.9473684 126.82002,19.2631579 126.294014,21.1052632 C126.188813,21.6052632 125.97841,22.1315789 125.97841,22.6315789 L134.447105,22.6315789 Z" id="Shape"></path>
            <path d="M146.361138,11.4210526 L151.226693,11.4210526 L156.828656,28.3157895 L158.354073,28.3157895 L158.354073,31.5789474 L153.777821,31.5789474 L152.462807,27.2105263 L145.335427,27.2105263 L144.020412,31.5789474 L139.33896,31.5789474 L139.33896,28.3157895 L140.864377,28.3157895 L146.361138,11.4210526 Z M148.780765,15.1842105 L146.124436,24.1315789 L151.410795,24.1315789 L148.780765,15.1842105 Z" id="Shape"></path>
            <polygon id="Shape" points="158.14367 16.2105263 164.245339 16.2105263 164.245339 19.1578947 162.719921 19.1578947 164.850245 28.2105263 167.401374 16.2105263 171.372718 16.2105263 173.923847 28.0263158 175.94897 19.1842105 174.423553 19.1842105 174.423553 16.2368421 180.525221 16.2368421 180.525221 19.1842105 179.210206 19.1842105 175.94897 31.4736842 171.872424 31.4736842 169.321295 20.8947368 166.875368 31.4736842 162.798822 31.4736842 159.432385 19.1578947 158.11737 19.1578947"></polygon>
            <path d="M194.964082,28.6315789 L196.279097,28.6315789 L196.279097,31.5789474 L191.492444,31.5789474 L191.492444,29.7368421 C190.361531,31.1578947 188.652012,31.8684211 186.810991,31.8684211 C183.760157,31.8684211 181.419431,29.8421053 181.419431,27.0789474 C181.419431,22.6052632 186.495388,22.1052632 191.387242,21.6842105 C191.387242,19.3421053 190.571933,18.6315789 188.652012,18.6315789 C186.73209,18.6315789 185.995682,19.5526316 185.916781,20.9736842 L185.916781,21.0789474 L182.26104,20.9736842 C182.471443,17.9210526 184.91737,16 188.573111,16 C192.833759,16 195.069284,17.9210526 195.069284,21.3947368 L194.964082,28.6315789 Z M191.308342,24.3421053 C187.757802,24.6578947 185.417076,24.9473684 185.417076,27.0789474 C185.417076,28.2894737 186.442787,29.1052632 187.968204,29.1052632 C189.809225,29.1052632 191.334642,27.6842105 191.413543,25.8421053 L191.413543,25.7894737 L191.413543,24.3684211 L191.308342,24.3684211 L191.308342,24.3421053 Z" id="Shape"></path>
            <path d="M203.485378,18.6578947 C204.511089,16.7368421 205.615702,15.9210526 207.351521,15.9210526 C207.956428,15.9210526 208.482434,16.0263158 209.087341,16.1315789 L209.087341,19.6842105 C208.482434,19.5789474 207.877527,19.4736842 207.24632,19.4736842 C205.326398,19.3684211 203.69578,20.7894737 203.590579,22.6315789 L203.590579,28.5263158 L205.4316,28.5263158 L205.4316,31.4736842 L198.30422,31.4736842 L198.30422,28.5263158 L199.829637,28.5263158 L199.829637,19.1578947 L198.30422,19.1578947 L198.30422,16.2105263 L203.485378,16.2105263 L203.485378,18.6578947 Z" id="Shape"></path>
            <path d="M224.446712,26.5 C223.736605,29.8684211 221.001374,31.8947368 217.319333,31.8947368 C213.058685,31.8947368 209.90265,28.5263158 209.90265,23.8684211 C209.90265,19.1842105 213.058685,15.8421053 217.319333,15.8421053 C219.660059,15.8421053 221.895584,16.9736842 223.210599,19 C224.23631,20.7368421 224.841217,22.6578947 224.736016,24.7105263 L213.742493,24.7105263 C214.136997,28.6842105 216.688126,28.8947368 217.398234,28.8947368 C218.818449,29 220.133464,27.9736842 220.554269,26.6578947 L224.446712,26.5 Z M220.475368,22.0263158 C220.475368,20.2894737 219.055152,18.9736842 217.424534,18.9736842 L217.319333,18.9736842 C215.583513,18.9736842 214.163297,20.2894737 213.873994,21.9210526 L220.475368,22.0263158 Z" id="Shape"></path>
            <path d="M263.476349,2.36842105 C263.976055,2.36842105 264.344259,2.5 264.633562,2.73684211 C264.896565,2.97368421 265.054367,3.31578947 265.054367,3.71052632 C265.054367,4.02631579 264.975466,4.28947368 264.843965,4.52631579 C264.712463,4.76315789 264.475761,4.92105263 264.160157,5 L264.160157,5.02631579 C264.317959,5.05263158 264.42316,5.10526316 264.528361,5.15789474 C264.633562,5.23684211 264.686163,5.31578947 264.738763,5.39473684 C264.791364,5.5 264.843965,5.60526316 264.870265,5.71052632 C264.896565,5.81578947 264.922866,5.94736842 264.922866,6.07894737 C264.922866,6.21052632 264.949166,6.34210526 264.949166,6.47368421 C264.949166,6.60526316 264.975466,6.73684211 264.975466,6.86842105 C265.001766,7 265.028067,7.10526316 265.054367,7.23684211 C265.080667,7.34210526 265.133268,7.44736842 265.212169,7.52631579 L264.44946,7.52631579 C264.39686,7.47368421 264.370559,7.39473684 264.344259,7.31578947 C264.317959,7.23684211 264.317959,7.13157895 264.317959,7 C264.317959,6.89473684 264.317959,6.76315789 264.291658,6.63157895 C264.291658,6.5 264.265358,6.36842105 264.239058,6.23684211 C264.212758,6.10526316 264.186457,6 264.160157,5.86842105 C264.133857,5.76315789 264.081256,5.65789474 264.028656,5.57894737 C263.976055,5.5 263.897154,5.42105263 263.791953,5.36842105 C263.686752,5.31578947 263.55525,5.28947368 263.397448,5.28947368 L261.71423,5.28947368 L261.71423,7.47368421 L261.030422,7.47368421 L261.030422,2.36842105 L263.476349,2.36842105 Z M263.634151,4.71052632 C263.765653,4.68421053 263.897154,4.63157895 264.002355,4.57894737 C264.107556,4.5 264.186457,4.42105263 264.265358,4.28947368 C264.317959,4.18421053 264.370559,4.02631579 264.370559,3.84210526 C264.370559,3.57894737 264.291658,3.36842105 264.160157,3.21052632 C264.028656,3.05263158 263.791953,2.97368421 263.450049,2.97368421 L261.74053,2.97368421 L261.74053,4.76315789 L263.160746,4.76315789 C263.344848,4.73684211 263.476349,4.73684211 263.634151,4.71052632 Z" id="Shape"></path>
            <path d="M262.976644,10.1052632 C260.241413,10.1052632 258.005888,7.86842105 258.005888,5.13157895 C258.005888,2.39473684 260.241413,0.157894737 262.976644,0.157894737 C265.711874,0.157894737 267.947399,2.39473684 267.947399,5.13157895 C267.9737,7.86842105 265.738175,10.1052632 262.976644,10.1052632 Z M262.976644,0.947368421 C260.688518,0.947368421 258.794897,2.81578947 258.794897,5.13157895 C258.794897,7.44736842 260.662218,9.31578947 262.976644,9.31578947 C265.264769,9.31578947 267.158391,7.44736842 267.158391,5.13157895 C267.158391,2.81578947 265.29107,0.947368421 262.976644,0.947368421 Z" id="Shape"></path>
            <g id="Group" transform="translate(226.445535, 20.000000)">
                <polygon id="Shape" points="0.131501472 9.55263158 2.02512267 9.55263158 2.02512267 11.4210526 0.131501472 11.4210526"></polygon>
                <path d="M3.73464181,5.89473684 C3.73464181,2.55263158 5.78606477,0.236842105 8.78429833,0.236842105 C11.703631,0.236842105 13.8339549,2.63157895 13.8339549,5.89473684 C13.8339549,9.31578947 11.7562316,11.6578947 8.75799804,11.6578947 C5.75976447,11.6578947 3.73464181,9.34210526 3.73464181,5.89473684 Z M8.70539745,10.2894737 C10.7831207,10.2894737 12.0455348,8.60526316 12.0455348,5.84210526 C12.0455348,3.23684211 10.7305201,1.57894737 8.70539745,1.57894737 C6.73287537,1.57894737 5.49676153,3.23684211 5.49676153,5.92105263 C5.49676153,8.68421053 6.70657507,10.2894737 8.70539745,10.2894737 Z" id="Shape"></path>
                <path d="M18.1209028,2.94736842 C18.6469087,1.78947368 18.936212,1.44736842 19.4359176,0.973684211 C20.014524,0.473684211 20.724632,0.210526316 21.4347399,0.210526316 C21.6977429,0.210526316 22.065947,0.263157895 22.6182532,0.342105263 L22.6182532,1.94736842 C22.065947,1.84210526 21.7503435,1.81578947 21.4610402,1.81578947 C18.489107,1.81578947 18.1209028,4.89473684 18.1209028,5.07894737 L18.1209028,10.1578947 L19.9882237,10.1578947 L19.9882237,11.4473684 L14.9648675,11.4473684 L14.9648675,10.1578947 L16.5428852,10.1578947 L16.5428852,1.73684211 L14.9122669,1.73684211 L14.9122669,0.421052632 L18.1209028,0.421052632 L18.1209028,2.94736842 Z" id="Shape"></path>
                <path d="M31.2184495,8.73684211 C30.2190383,10.1578947 29.1144259,10.6052632 27.9046124,10.6052632 C25.2745829,10.6052632 23.4598626,8.44736842 23.4598626,5.31578947 C23.4598626,2.34210526 25.2482826,0.236842105 27.7205103,0.236842105 C29.745633,0.236842105 30.639843,1.52631579 31.2184495,2.36842105 L31.2184495,0.394736842 L34.3218842,0.394736842 L34.3218842,1.71052632 L32.7964671,1.71052632 L32.7964671,10.7368421 C32.7964671,13.3947368 31.1132483,14.8947368 28.1150147,14.8947368 C26.3002944,14.8947368 24.748577,14.1052632 24.0121688,12.8157895 C23.8806673,12.5526316 23.7491658,12.2894737 23.5650638,11.7368421 L25.3534838,11.7368421 C26.0109912,13.0526316 26.7736997,13.5526316 28.2465162,13.5526316 C30.1138371,13.5526316 31.2184495,12.5789474 31.2184495,11 L31.2184495,8.73684211 Z M31.2184495,4.47368421 C31.2184495,3.26315789 29.745633,1.55263158 28.0624141,1.55263158 C26.2739941,1.55263158 25.1693817,3.02631579 25.1693817,5.42105263 C25.1693817,7.84210526 26.3002944,9.31578947 28.1676153,9.31578947 C29.7719333,9.31578947 31.2184495,7.73684211 31.2184495,6.44736842 L31.2184495,4.47368421 Z" id="Shape"></path>
            </g>
        </g>
    </g>
</svg>