<svg xmlns="http://www.w3.org/2000/svg" width="28" height="32" viewBox="0 0 28 32">
  <g fill="#EEEEEE" fill-rule="evenodd">
    <path d="M4.34329252 28.7857778C4.28331973 30.1458338 3.37741497 31.030303 2.1657542 31.030303 1.5298322 31.030303.983764172 30.7837493.551960091 30.2963414.192123356 29.8931585 0 29.3696541 0 28.7798672 0 28.1839588.227896599 27.63639.666013605 27.2032323 1.07972063 26.7875951 1.58980499 26.5830484 2.213522 26.5830484 3.08344308 26.5830484 3.75555918 27.0107178 4.08530431 27.75059L3.32354467 27.75059C3.04156735 27.3898363 2.64553651 27.2032323 2.1657542 27.2032323 1.76362086 27.2032323 1.39178957 27.3592282 1.10981224 27.6482111.809948299 27.9549256.64202449 28.3766844.64202449 28.7857778.64202449 29.2370893.797743311 29.6461826 1.07382857 29.9351655 1.36780045 30.24188 1.76972336 30.416663 2.1657542 30.416663 2.80756825 30.416663 3.31133968 30.0734298 3.63540317 29.3875968L1.7038585 29.3875968 1.7038585 28.7857778 4.34329252 28.7857778M6.32113197 27.4738503L5.70898866 29.0984028 6.92107029 29.0984028 6.32113197 27.4738503zM5.00720181 30.9460779L4.35318277 30.9460779 6.0210576 26.6674846 6.62099592 26.6674846 8.28866032 30.9460779 7.61086259 30.9460779 7.1428644 29.700644 5.48719456 29.700644 5.00720181 30.9460779 5.00720181 30.9460779z"/>
    <polyline points="8.521 30.946 8.521 26.667 9.439 26.667 10.675 29.977 11.911 26.667 12.817 26.667 12.817 30.946 12.235 30.946 12.277 27.233 10.891 30.946 10.453 30.946 9.073 27.233 9.115 30.946 8.521 30.946"/>
    <path d="M15.5323211 31.030303C14.9020807 31.030303 14.3682177 30.7955704 13.9484082 30.3503805 13.5464853 29.9233445 13.3423673 29.3935073 13.3423673 28.7619246 13.3423673 28.1721377 13.5643719 27.6302684 13.9902839 27.2152645 14.4103039 26.7996273 14.9384853 26.5830484 15.5443156 26.5830484 16.5400744 26.5830484 17.391688 27.2393288 17.6677732 28.2922482L16.5400744 28.2922482C16.3121778 27.8709116 15.9700172 27.6482111 15.5502077 27.6482111 14.9140753 27.6482111 14.4164063 28.1415296 14.4164063 28.7678351 14.4164063 29.4477576 14.9443773 29.971262 15.5323211 29.971262 15.9340336 29.971262 16.2881887 29.7546832 16.5160853 29.3574108L17.6500971 29.3574108C17.3679093 30.3985092 16.557961 31.030303 15.5323211 31.030303M19.6275156 28.0695477L19.2016036 29.4414249 20.047746 29.4414249 19.6275156 28.0695477zM18.7039347 30.9460779L17.5640308 30.9460779 19.2016036 26.6674846 20.0536381 26.6674846 21.6914213 30.9460779 20.5395229 30.9460779 20.3295129 30.3263162 18.9200472 30.3263162 18.7039347 30.9460779 18.7039347 30.9460779zM23.0215546 28.6411808C23.5375311 28.6411808 23.7892063 28.508827 23.7892063 28.1235869 23.7892063 27.7685327 23.5676227 27.6243579 23.1055166 27.6243579L22.8174367 27.6243579 22.8174367 28.6411808 23.0215546 28.6411808zM21.7736998 30.9460779L21.7736998 26.6674846 23.1894785 26.6674846C23.6391692 26.6674846 23.9813297 26.6974595 24.26962 26.9020062 24.6473433 27.1667137 24.8453587 27.5698965 24.8453587 28.0995226 24.8453587 28.7916883 24.4853116 29.3092822 23.8794812 29.4775213L24.9232181 30.9460779 23.6332771 30.9460779 22.8174367 29.5680792 22.8174367 30.9460779 21.7736998 30.9460779 21.7736998 30.9460779z"/>
    <g transform="translate(12.836 14.565)">
      <polyline points="12.56 16.381 12.56 12.102 14.875 12.102 14.875 13.047 13.604 13.047 13.604 13.739 14.875 13.739 14.875 14.69 13.604 14.69 13.604 15.436 14.875 15.436 14.875 16.381 12.56 16.381"/>
      <path d="M14.1194884,0.350410225 C14.0050141,0.285394352 13.878966,0.241698619 13.7434485,0.222911565 C13.7116735,0.217423212 13.6798984,0.216367759 13.6477025,0.213201402 C13.6304472,0.21235704 13.6140336,0.207924139 13.5965678,0.207924139 L13.5481687,0.207924139 C13.5052408,0.206868687 13.4623129,0.204757782 13.4198059,0.207924139 L5.07916916,0.207924139 C4.48891066,0.207924139 4.01039093,0.687943929 4.01039093,1.27963059 C4.01039093,1.87173944 4.48891066,2.35175922 5.07916916,2.35175922 L8.31980408,2.35175922 C8.42649252,2.35260359 8.51319002,2.43978396 8.51319002,2.54722902 C8.51319002,2.60928963 8.48036281,2.66037353 8.43512018,2.69604783 C6.65845261,3.64806597 4.3731737,4.22497629 1.87283447,4.22497629 C1.26426848,4.22497629 0.669380499,4.18951309 0.0902748299,4.12428613 L0.0902748299,6.55794846 C0.594887982,6.59510039 1.10686621,6.61620944 1.62684082,6.61620944 C5.1067356,6.61620944 8.27245714,5.76277056 10.6452753,4.36830674 L10.6459066,4.37168419 C10.6753669,4.35627458 10.7084045,4.34740878 10.7437569,4.34740878 C10.8599147,4.34740878 10.9539773,4.44176623 10.9539773,4.55828819 C10.9539773,4.57939724 10.9501896,4.59987302 10.9436662,4.61971552 L10.4493642,5.9662618 C10.1890612,6.6748926 10.550371,7.46057143 11.2569977,7.72147928 C11.4122957,7.77910699 11.5713814,7.80612657 11.727942,7.80612657 C12.2826376,7.80612657 12.803454,7.46415997 13.0065197,6.91152505 L14.7951819,2.04145619 C15.038019,1.37989858 14.7349986,0.656491445 14.1194884,0.350410225"/>
    </g>
    <path d="M14.7091156 5.71949701C17.2292354 5.71928592 19.5359782 6.30147351 21.3187483 7.26700144 21.3187483 7.26700144 22.4508662 8.08434385 22.9895692 7.29972047 23.6076045 6.3994195 22.3734277 5.83897423 22.3734277 5.83897423 20.1611683 4.79555391 17.4249361 4.17853638 14.463122 4.17853638 13.9431474 4.17853638 13.4311692 4.19964543 12.926556 4.23679736L12.926556 5.82060936C13.5056617 5.7553824 14.1005497 5.71949701 14.7091156 5.71949701M1.90187392.112722325C.861293424.112722325.0172553288.959195217.0172553288 2.00324881L.0172553288 22.6314343C.0172553288 23.675699.861293424 24.5217497 1.90187392 24.5217497L12.926556 24.5217497 12.926556 21.1231927C6.29314467 20.6368402 1.14095601 17.0432356 1.14095601 12.6799951 1.14095601 8.31654339 6.29314467 4.72314987 12.926556 4.23679736L12.926556.112722325 1.90187392.112722325"/>
    <path d="M4.4796517,12.2550699 C4.4796517,15.4754665 8.12725986,18.1501942 12.926556,18.6895304 L12.926556,5.82060936 C8.12725986,6.35973449 4.4796517,9.03425108 4.4796517,12.2550699"/>
  </g>
</svg>
